<?xml version="1.0" encoding="utf-8"?>
<!-- Generator: Adobe Illustrator 25.4.0, SVG Export Plug-In . SVG Version: 6.00 Build 0)  -->
<svg version="1.1" id="레이어_1" xmlns="http://www.w3.org/2000/svg" xmlns:xlink="http://www.w3.org/1999/xlink" x="0px"
	 y="0px" viewBox="0 0 226.8 59.4" style="enable-background:new 0 0 226.8 59.4;" xml:space="preserve">
<style type="text/css">
	.st0{fill:#FFFFFF;}
</style>
<g>
	<g>
		<path class="st0" d="M36.2,0h-7.4c-0.4,0-0.8,0.3-0.8,0.8v21.1h-4.4V2.4c0-0.4-0.3-0.8-0.8-0.8H0.8C0.3,1.7,0,2,0,2.4v50.3
			c0,0.4,0.3,0.8,0.8,0.8H23c0.4,0,0.8-0.3,0.8-0.8v-22h4.4v28c0,0.4,0.3,0.8,0.8,0.8h7.4c0.4,0,0.8-0.3,0.8-0.8V0.8
			C37,0.3,36.6,0,36.2,0z M14.4,44.9H9.3V10.3h5.1V44.9z"/>
		<path class="st0" d="M48.8,0h-8.1c-0.4,0-0.8,0.3-0.8,0.8v57.9c0,0.4,0.3,0.8,0.8,0.8h8.1c0.4,0,0.8-0.3,0.8-0.8V0.8
			C49.5,0.3,49.2,0,48.8,0z"/>
	</g>
	<g>
		<path class="st0" d="M87,1.6H60.6c-0.4,0-0.8,0.3-0.8,0.8v7.3c0,0.4,0.3,0.8,0.8,0.8h16.8v13.9c0,5.8-7.2,14-18.4,23.6
			c-0.3,0.3-0.3,0.8,0,1.1l5.9,6.3c0.3,0.3,0.7,0.3,1.1,0.1c19.8-16.3,21.8-24.4,21.8-29V2.3C87.8,1.9,87.4,1.6,87,1.6z"/>
		<path class="st0" d="M111.6,22.7h-7.2V0.8c0-0.4-0.3-0.8-0.8-0.8h-8.8c-0.4,0-0.8,0.3-0.8,0.8v57.9c0,0.4,0.3,0.8,0.8,0.8h8.8
			c0.4,0,0.8-0.3,0.8-0.8V31.5h7.2c0.4,0,0.8-0.3,0.8-0.8v-7.3C112.4,23,112,22.7,111.6,22.7z"/>
	</g>
	<g>
		<path class="st0" d="M171,12.9h-6.4V1.1c0-0.4-0.3-0.8-0.8-0.8h-8.8c-0.4,0-0.8,0.3-0.8,0.8v32.4c0,0.4,0.3,0.8,0.8,0.8h8.8
			c0.4,0,0.8-0.3,0.8-0.8V21.7h6.4c0.4,0,0.8-0.3,0.8-0.8v-7.3C171.7,13.3,171.4,12.9,171,12.9z"/>
		<path class="st0" d="M149.2,31.9V2c0-0.4-0.3-0.8-0.8-0.8h-8.2c-0.4,0-0.8,0.3-0.8,0.8v7.7H129V2c0-0.4-0.3-0.8-0.8-0.8h-8.2
			c-0.4,0-0.8,0.3-0.8,0.8v30c0,0.4,0.3,0.8,0.8,0.8h28.3C148.8,32.7,149.2,32.3,149.2,31.9z M140.5,23.9h-10.3v-6.3h10.3V23.9z"/>
		<path class="st0" d="M163.9,37.6h-40.7c-0.4,0-0.8,0.3-0.8,0.8v7.3c0,0.4,0.3,0.8,0.8,0.8h30.4c0.4,0,0.8,0.3,0.8,0.8v11.1
			c0,0.4,0.3,0.8,0.8,0.8h8.8c0.4,0,0.8-0.3,0.8-0.8V38.4C164.6,38,164.3,37.6,163.9,37.6z"/>
	</g>
	<g>
		<path class="st0" d="M226,47.4h-50c-0.4,0-0.8,0.3-0.8,0.8v7.3c0,0.4,0.3,0.8,0.8,0.8h50c0.4,0,0.8-0.3,0.8-0.8v-7.3
			C226.8,47.8,226.4,47.4,226,47.4z"/>
		<path class="st0" d="M179.3,35.5h6.2c0.2,0,0.4-0.1,0.5-0.2l9.7-8.9l5.3-4.8l5.3,4.8l9.7,8.9c0.1,0.1,0.3,0.2,0.5,0.2h6.2
			c0.4,0,0.8-0.3,0.8-0.8v-6.1c0-0.2-0.1-0.4-0.2-0.6l-15-13.7c-1.3-1.2-2-2.8-2-4.5V1.3c0-0.4-0.3-0.8-0.8-0.8h-9
			c-0.4,0-0.8,0.3-0.8,0.8v8.4c0,1.7-0.7,3.4-2,4.5l-15,13.7c-0.2,0.1-0.2,0.3-0.2,0.6v6.1C178.5,35.1,178.8,35.5,179.3,35.5z"/>
	</g>
</g>
</svg>
