<?xml version="1.0" encoding="utf-8"?>
<!-- Generator: Adobe Illustrator 25.4.0, SVG Export Plug-In . SVG Version: 6.00 Build 0)  -->
<svg version="1.1" id="레이어_1" xmlns="http://www.w3.org/2000/svg" xmlns:xlink="http://www.w3.org/1999/xlink" x="0px"
	 y="0px" viewBox="0 0 160.5 118.8" style="enable-background:new 0 0 160.5 118.8;" xml:space="preserve">
<style type="text/css">
	.st0{fill:#3C2A78;}
</style>
<g>
	<path class="st0" d="M0,0v57.7h37.5V0H0z M30.5,42.8c0,0.2-0.2,0.4-0.4,0.4h-5.4c-0.2,0-0.4-0.2-0.4-0.4V26.1l-3.6,10.5
		c-0.1,0.2-0.2,0.3-0.4,0.3H17c-0.2,0-0.3-0.1-0.4-0.3l-3.6-10.5v16.7c0,0.2-0.2,0.4-0.4,0.4H7.3c-0.2,0-0.4-0.2-0.4-0.4V15
		c0-0.2,0.2-0.4,0.4-0.4h5.8c0.2,0,0.3,0.1,0.4,0.3l5.3,14.5L24,14.9c0.1-0.2,0.2-0.3,0.4-0.3h5.8c0.2,0,0.4,0.2,0.4,0.4V42.8z"/>
	<g>
		<path class="st0" d="M123,0v57.7h37.5V0H123z M151.1,42.8c0,0.2-0.2,0.4-0.4,0.4h-5.5c-0.2,0-0.4-0.2-0.4-0.4v-5.3h-6.3v5.3
			c0,0.2-0.2,0.4-0.4,0.4h-5.5c-0.2,0-0.4-0.2-0.4-0.4v-8.1c0,0,0-0.1,0-0.1l5.2-19.6c0-0.2,0.2-0.3,0.4-0.3h7.7
			c0.2,0,0.3,0.1,0.4,0.3l5.2,19.6c0,0,0,0.1,0,0.1V42.8z"/>
		<polygon class="st0" points="139.1,32 144.3,32 141.7,19.7 		"/>
	</g>
	<g>
		<path class="st0" d="M20.6,92.7H16v6.2h4.6c0.5,0,0.9-0.4,0.9-0.9v-4.4C21.5,93.1,21.1,92.7,20.6,92.7z"/>
		<path class="st0" d="M0,61.2v57.7h37.5V61.2H0z M27.7,98.7c0,3.1-2.5,5.6-5.6,5.6H10.2c-0.2,0-0.4-0.2-0.4-0.4V76.2
			c0-0.2,0.2-0.4,0.4-0.4h11.3c3.1,0,5.6,2.5,5.6,5.6v5.3c0,0.3-0.1,0.5-0.3,0.7l-2.9,2.2l3.5,2.8c0.2,0.2,0.3,0.4,0.3,0.7V98.7z"/>
		<path class="st0" d="M20.9,86.3v-4.1c0-0.5-0.4-0.9-0.9-0.9h-4v5.9h4C20.5,87.2,20.9,86.8,20.9,86.3z"/>
	</g>
	<g>
		<path class="st0" d="M62.2,81.1h-5.1c-0.2,0-0.4,0.2-0.4,0.4v17.2c0,0.2,0.2,0.4,0.4,0.4h5.1c0.2,0,0.4-0.2,0.4-0.4V81.5
			C62.6,81.3,62.4,81.1,62.2,81.1z"/>
		<path class="st0" d="M41,61.2v57.7h37.5V61.2H41z M68.8,81.2V99c0,3.1-2.5,5.7-5.7,5.7h-6.9h0c-3.1,0-5.7-2.5-5.7-5.7v0V81.2
			c0-3.1,2.5-5.7,5.7-5.7h6.9h0C66.3,75.5,68.8,78,68.8,81.2L68.8,81.2z"/>
	</g>
	<path class="st0" d="M82,61.2v57.7h37.5V61.2H82z M109.9,104c0,0.2-0.2,0.4-0.4,0.4h-5.4c-0.2,0-0.3-0.1-0.4-0.3l-3.1-10.1
		l-3.1,10.1c0,0.2-0.2,0.3-0.4,0.3h-5.4c-0.2,0-0.4-0.2-0.4-0.4v-5.9c0-0.1,0-0.1,0.1-0.2l4.7-7.8l-4.5-8c0-0.1,0-0.1,0-0.2v-5.7
		c0-0.2,0.2-0.4,0.4-0.4h5.5c0.2,0,0.3,0.1,0.4,0.3l2.7,9.7l2.7-9.7c0-0.2,0.2-0.3,0.4-0.3h5.5c0.2,0,0.4,0.2,0.4,0.4v5.7
		c0,0.1,0,0.1,0,0.2l-4.5,8l4.7,7.8c0,0.1,0.1,0.1,0.1,0.2V104z"/>
	<path class="st0" d="M41,0v57.7h37.5V0H41z M67.7,42.7c0,0.2-0.2,0.4-0.4,0.4H52.7c-0.2,0-0.4-0.2-0.4-0.4V15
		c0-0.2,0.2-0.4,0.4-0.4h14.5c0.2,0,0.4,0.2,0.4,0.4v4.9c0,0.2-0.2,0.4-0.4,0.4h-8.6v5.6h8.2c0.2,0,0.4,0.2,0.4,0.4V31
		c0,0.2-0.2,0.4-0.4,0.4h-8.2v6.1h8.9c0.2,0,0.4,0.2,0.4,0.4V42.7z"/>
	<path class="st0" d="M82,0v57.7h37.5V0H82z M109.8,23.6c0,0.2-0.2,0.4-0.4,0.4H104c-0.2,0-0.4-0.2-0.4-0.4v-3.3
		c0-0.2-0.2-0.4-0.4-0.4h-5.1c-0.2,0-0.4,0.2-0.4,0.4v17.2c0,0.2,0.2,0.4,0.4,0.4h5.1c0.2,0,0.4-0.2,0.4-0.4v-4.6h-2.7
		c-0.2,0-0.4-0.2-0.4-0.4v-4.7c0-0.2,0.2-0.4,0.4-0.4h8.5c0.2,0,0.4,0.2,0.4,0.4v15c0,0.2-0.2,0.4-0.4,0.4h-4.9
		c-0.2,0-0.4-0.1-0.4-0.3l-0.2-2.1l-2.2,2.7c-0.1,0.1-0.2,0.1-0.3,0.1h-4.1c-3.1,0-5.7-2.5-5.7-5.7V20c0-3.1,2.5-5.7,5.7-5.7h6.9
		c3.1,0,5.7,2.5,5.7,5.7V23.6z"/>
</g>
</svg>
